<mxfile host="app.diagrams.net" modified="2021-12-09T14:53:57.037Z" agent="5.0 (Windows NT 10.0; Win64; x64) AppleWebKit/537.36 (KHTML, like Gecko) Chrome/95.0.4638.69 Safari/537.36 OPR/81.0.4196.61" etag="Xgu1E-EZY3uvbVoUzS1M" version="15.9.4" type="github">
  <diagram id="UITjREFEwrXoQhMdEP_X" name="Page-1">
    <mxGraphModel dx="1067" dy="444" grid="1" gridSize="10" guides="1" tooltips="1" connect="1" arrows="1" fold="1" page="1" pageScale="1" pageWidth="827" pageHeight="1169" math="0" shadow="0">
      <root>
        <mxCell id="0" />
        <mxCell id="1" parent="0" />
        <mxCell id="uIHBYYpKBD_VUgHWFlKf-4" style="edgeStyle=orthogonalEdgeStyle;rounded=0;orthogonalLoop=1;jettySize=auto;html=1;" edge="1" parent="1" source="uIHBYYpKBD_VUgHWFlKf-1" target="uIHBYYpKBD_VUgHWFlKf-5">
          <mxGeometry relative="1" as="geometry">
            <mxPoint x="120" y="200" as="targetPoint" />
          </mxGeometry>
        </mxCell>
        <mxCell id="uIHBYYpKBD_VUgHWFlKf-1" value="Inicio" style="ellipse;whiteSpace=wrap;html=1;" vertex="1" parent="1">
          <mxGeometry x="60" y="20" width="120" height="80" as="geometry" />
        </mxCell>
        <mxCell id="uIHBYYpKBD_VUgHWFlKf-7" style="edgeStyle=orthogonalEdgeStyle;rounded=0;orthogonalLoop=1;jettySize=auto;html=1;" edge="1" parent="1" source="uIHBYYpKBD_VUgHWFlKf-5">
          <mxGeometry relative="1" as="geometry">
            <mxPoint x="120" y="240" as="targetPoint" />
          </mxGeometry>
        </mxCell>
        <mxCell id="uIHBYYpKBD_VUgHWFlKf-5" value="Qual a data do Evento?" style="shape=display;whiteSpace=wrap;html=1;" vertex="1" parent="1">
          <mxGeometry x="65" y="150" width="110" height="50" as="geometry" />
        </mxCell>
        <mxCell id="uIHBYYpKBD_VUgHWFlKf-11" style="edgeStyle=orthogonalEdgeStyle;rounded=0;orthogonalLoop=1;jettySize=auto;html=1;" edge="1" parent="1" source="uIHBYYpKBD_VUgHWFlKf-9">
          <mxGeometry relative="1" as="geometry">
            <mxPoint x="120" y="350" as="targetPoint" />
          </mxGeometry>
        </mxCell>
        <mxCell id="uIHBYYpKBD_VUgHWFlKf-9" value="Data Informada" style="shape=manualInput;whiteSpace=wrap;html=1;" vertex="1" parent="1">
          <mxGeometry x="55" y="230" width="130" height="70" as="geometry" />
        </mxCell>
        <mxCell id="uIHBYYpKBD_VUgHWFlKf-13" value="Vedadeiro" style="edgeStyle=orthogonalEdgeStyle;rounded=0;orthogonalLoop=1;jettySize=auto;html=1;" edge="1" parent="1">
          <mxGeometry relative="1" as="geometry">
            <mxPoint x="120" y="510" as="targetPoint" />
            <mxPoint x="120" y="440" as="sourcePoint" />
          </mxGeometry>
        </mxCell>
        <mxCell id="uIHBYYpKBD_VUgHWFlKf-12" value="Ã‰ posterior a data atual?&lt;br&gt;" style="html=1;whiteSpace=wrap;aspect=fixed;shape=isoRectangle;" vertex="1" parent="1">
          <mxGeometry x="47.5" y="350" width="145" height="87" as="geometry" />
        </mxCell>
        <mxCell id="uIHBYYpKBD_VUgHWFlKf-16" style="edgeStyle=orthogonalEdgeStyle;rounded=0;orthogonalLoop=1;jettySize=auto;html=1;" edge="1" parent="1" source="uIHBYYpKBD_VUgHWFlKf-14">
          <mxGeometry relative="1" as="geometry">
            <mxPoint x="120" y="610" as="targetPoint" />
          </mxGeometry>
        </mxCell>
        <mxCell id="uIHBYYpKBD_VUgHWFlKf-14" value="Qual O ano atual?" style="shape=display;whiteSpace=wrap;html=1;" vertex="1" parent="1">
          <mxGeometry x="70" y="510" width="100" height="40" as="geometry" />
        </mxCell>
        <mxCell id="uIHBYYpKBD_VUgHWFlKf-18" style="edgeStyle=orthogonalEdgeStyle;rounded=0;orthogonalLoop=1;jettySize=auto;html=1;" edge="1" parent="1" source="uIHBYYpKBD_VUgHWFlKf-15" target="uIHBYYpKBD_VUgHWFlKf-19">
          <mxGeometry relative="1" as="geometry">
            <mxPoint x="120" y="720" as="targetPoint" />
          </mxGeometry>
        </mxCell>
        <mxCell id="uIHBYYpKBD_VUgHWFlKf-15" value="ano Atual" style="shape=manualInput;whiteSpace=wrap;html=1;" vertex="1" parent="1">
          <mxGeometry x="55" y="600" width="130" height="60" as="geometry" />
        </mxCell>
        <mxCell id="uIHBYYpKBD_VUgHWFlKf-20" style="edgeStyle=orthogonalEdgeStyle;rounded=0;orthogonalLoop=1;jettySize=auto;html=1;" edge="1" parent="1" source="uIHBYYpKBD_VUgHWFlKf-19" target="uIHBYYpKBD_VUgHWFlKf-21">
          <mxGeometry relative="1" as="geometry">
            <mxPoint x="120" y="800" as="targetPoint" />
          </mxGeometry>
        </mxCell>
        <mxCell id="uIHBYYpKBD_VUgHWFlKf-19" value="Qual o ano de nascimento do participante?" style="shape=display;whiteSpace=wrap;html=1;" vertex="1" parent="1">
          <mxGeometry x="57.5" y="710" width="125" height="50" as="geometry" />
        </mxCell>
        <mxCell id="uIHBYYpKBD_VUgHWFlKf-22" style="edgeStyle=orthogonalEdgeStyle;rounded=0;orthogonalLoop=1;jettySize=auto;html=1;" edge="1" parent="1" source="uIHBYYpKBD_VUgHWFlKf-21">
          <mxGeometry relative="1" as="geometry">
            <mxPoint x="120" y="940" as="targetPoint" />
          </mxGeometry>
        </mxCell>
        <mxCell id="uIHBYYpKBD_VUgHWFlKf-21" value="Ano de nascimento do participante" style="shape=manualInput;whiteSpace=wrap;html=1;" vertex="1" parent="1">
          <mxGeometry x="66.25" y="810" width="107.5" height="80" as="geometry" />
        </mxCell>
        <mxCell id="uIHBYYpKBD_VUgHWFlKf-24" value="Idade= Ano Atual-Ano Nascimento" style="rounded=0;whiteSpace=wrap;html=1;" vertex="1" parent="1">
          <mxGeometry x="60" y="940" width="120" height="60" as="geometry" />
        </mxCell>
      </root>
    </mxGraphModel>
  </diagram>
</mxfile>
